<svg xmlns="http://www.w3.org/2000/svg" width="46" height="43" viewBox="0 0 46 43"><g transform="translate(-957 -665)"><rect width="46" height="43" rx="12" transform="translate(957 665)" fill="#fff"/><path d="M12.342,9.142a5.142,5.142,0,1,1,5.142,5.142A5.143,5.143,0,0,1,12.342,9.142ZM0,9.142a5.142,5.142,0,1,1,5.142,5.142A5.143,5.143,0,0,1,0,9.142ZM24.683,19.427V16.342a2.063,2.063,0,0,0-2.057-2.057H2.057A2.063,2.063,0,0,0,0,16.342V26.626a2.063,2.063,0,0,0,2.057,2.057H22.626a2.063,2.063,0,0,0,2.057-2.057V23.541l8.228,5.142v-14.4Zm-4.114,5.142H4.114V18.4H20.569Z" transform="translate(963.363 670.306)" fill="#d72323"/></g></svg>