<svg xmlns="http://www.w3.org/2000/svg" width="45" height="43" viewBox="0 0 45 43"><g transform="translate(-1029 -665)"><rect width="45" height="43" rx="12" transform="translate(1029 665)" fill="#fff"/><path d="M29.894,8.777c-2.705-.389-5.587-.671-8.594-.83l5.024-5.024L24.374.974,17.532,7.815Q16.573,7.8,15.6,7.8h0L7.8,0,5.85,1.949l5.917,5.917A98.1,98.1,0,0,0,1.3,8.777,43.5,43.5,0,0,0,0,19.5,43.46,43.46,0,0,0,1.3,30.219,101.3,101.3,0,0,0,15.6,31.2a101.3,101.3,0,0,0,14.295-.978A43.5,43.5,0,0,0,31.2,19.5a43.46,43.46,0,0,0-1.3-10.721ZM26.321,26.645A85.32,85.32,0,0,1,15.6,27.3a85.32,85.32,0,0,1-10.721-.652,26.607,26.607,0,0,1,0-14.294A85.308,85.308,0,0,1,15.6,11.7a85.292,85.292,0,0,1,10.72.652,26.595,26.595,0,0,1,0,14.294Z" transform="translate(1036.159 670.979)" fill="#d72323"/></g></svg>